<svg width="902" height="300" viewBox="0 0 902 300" fill="none" xmlns="http://www.w3.org/2000/svg">
<path d="M724.648 169V104.6H752.8C759.792 104.6 765.925 105.949 771.2 108.648C776.475 111.347 780.584 115.088 783.528 119.872C786.472 124.656 787.944 130.299 787.944 136.8C787.944 143.24 786.472 148.883 783.528 153.728C780.584 158.512 776.475 162.253 771.2 164.952C765.925 167.651 759.792 169 752.8 169H724.648ZM736.608 158.88H752.248C757.093 158.88 761.264 157.96 764.76 156.12C768.317 154.28 771.047 151.704 772.948 148.392C774.911 145.08 775.892 141.216 775.892 136.8C775.892 132.323 774.911 128.459 772.948 125.208C771.047 121.896 768.317 119.32 764.76 117.48C761.264 115.64 757.093 114.72 752.248 114.72H736.608V158.88ZM822.644 169.644C817.185 169.644 812.401 168.571 808.292 166.424C804.244 164.216 801.085 161.211 798.816 157.408C796.608 153.605 795.504 149.281 795.504 144.436C795.504 139.529 796.577 135.205 798.724 131.464C800.932 127.661 803.937 124.687 807.74 122.54C811.604 120.393 815.989 119.32 820.896 119.32C825.68 119.32 829.942 120.363 833.684 122.448C837.425 124.533 840.369 127.477 842.516 131.28C844.662 135.083 845.736 139.56 845.736 144.712C845.736 145.203 845.705 145.755 845.644 146.368C845.644 146.981 845.613 147.564 845.552 148.116H804.612V140.48H839.48L834.972 142.872C835.033 140.051 834.45 137.567 833.224 135.42C831.997 133.273 830.31 131.587 828.164 130.36C826.078 129.133 823.656 128.52 820.896 128.52C818.074 128.52 815.59 129.133 813.444 130.36C811.358 131.587 809.702 133.304 808.476 135.512C807.31 137.659 806.728 140.204 806.728 143.148V144.988C806.728 147.932 807.402 150.539 808.752 152.808C810.101 155.077 812.002 156.825 814.456 158.052C816.909 159.279 819.73 159.892 822.92 159.892C825.68 159.892 828.164 159.463 830.372 158.604C832.58 157.745 834.542 156.396 836.26 154.556L842.424 161.64C840.216 164.216 837.425 166.209 834.052 167.62C830.74 168.969 826.937 169.644 822.644 169.644ZM868.948 169L847.88 119.872H859.84L877.964 163.204H872.076L890.844 119.872H901.884L880.816 169H868.948Z" fill="#EAE9E7"/>
<path d="M28.612 169.92C23.5827 169.92 18.768 169.215 14.168 167.804C9.568 166.332 5.91867 164.461 3.22 162.192L7.36 152.9C9.936 154.924 13.1253 156.611 16.928 157.96C20.7307 159.309 24.6253 159.984 28.612 159.984C31.9853 159.984 34.7147 159.616 36.8 158.88C38.8853 158.144 40.4187 157.163 41.4 155.936C42.3813 154.648 42.872 153.207 42.872 151.612C42.872 149.649 42.1667 148.085 40.756 146.92C39.3453 145.693 37.5053 144.743 35.236 144.068C33.028 143.332 30.544 142.657 27.784 142.044C25.0853 141.431 22.356 140.725 19.596 139.928C16.8973 139.069 14.4133 137.996 12.144 136.708C9.936 135.359 8.12667 133.58 6.716 131.372C5.30533 129.164 4.6 126.343 4.6 122.908C4.6 119.412 5.52 116.223 7.36 113.34C9.26133 110.396 12.1133 108.065 15.916 106.348C19.78 104.569 24.656 103.68 30.544 103.68C34.408 103.68 38.2413 104.171 42.044 105.152C45.8467 106.133 49.1587 107.544 51.98 109.384L48.208 118.676C45.3253 116.959 42.3507 115.701 39.284 114.904C36.2173 114.045 33.2733 113.616 30.452 113.616C27.14 113.616 24.4413 114.015 22.356 114.812C20.332 115.609 18.8293 116.652 17.848 117.94C16.928 119.228 16.468 120.7 16.468 122.356C16.468 124.319 17.1427 125.913 18.492 127.14C19.9027 128.305 21.712 129.225 23.92 129.9C26.1893 130.575 28.704 131.249 31.464 131.924C34.224 132.537 36.9533 133.243 39.652 134.04C42.412 134.837 44.896 135.88 47.104 137.168C49.3733 138.456 51.1827 140.204 52.532 142.412C53.9427 144.62 54.648 147.411 54.648 150.784C54.648 154.219 53.6973 157.408 51.796 160.352C49.956 163.235 47.104 165.565 43.24 167.344C39.376 169.061 34.5 169.92 28.612 169.92ZM95.6714 169V159.064L95.0274 156.948V139.56C95.0274 136.187 94.0154 133.58 91.9914 131.74C89.9674 129.839 86.9007 128.888 82.7914 128.888C80.0314 128.888 77.302 129.317 74.6034 130.176C71.966 131.035 69.7274 132.231 67.8874 133.764L63.3794 125.392C66.0167 123.368 69.1447 121.865 72.7634 120.884C76.4434 119.841 80.246 119.32 84.1714 119.32C91.286 119.32 96.7754 121.037 100.639 124.472C104.565 127.845 106.527 133.089 106.527 140.204V169H95.6714ZM80.2154 169.644C76.5354 169.644 73.3154 169.031 70.5554 167.804C67.7954 166.516 65.6487 164.768 64.1154 162.56C62.6434 160.291 61.9074 157.745 61.9074 154.924C61.9074 152.164 62.5514 149.68 63.8394 147.472C65.1887 145.264 67.366 143.516 70.3714 142.228C73.3767 140.94 77.3634 140.296 82.3314 140.296H96.5914V147.932H83.1594C79.234 147.932 76.5967 148.576 75.2474 149.864C73.898 151.091 73.2234 152.624 73.2234 154.464C73.2234 156.549 74.0514 158.205 75.7074 159.432C77.3634 160.659 79.6634 161.272 82.6074 161.272C85.4287 161.272 87.9434 160.628 90.1514 159.34C92.4207 158.052 94.046 156.151 95.0274 153.636L96.9594 160.536C95.8554 163.419 93.862 165.657 90.9794 167.252C88.158 168.847 84.57 169.644 80.2154 169.644ZM121.286 169V100.736H132.786V169H121.286ZM170.972 169.644C165.513 169.644 160.729 168.571 156.62 166.424C152.572 164.216 149.413 161.211 147.144 157.408C144.936 153.605 143.832 149.281 143.832 144.436C143.832 139.529 144.905 135.205 147.052 131.464C149.26 127.661 152.265 124.687 156.068 122.54C159.932 120.393 164.317 119.32 169.224 119.32C174.008 119.32 178.271 120.363 182.012 122.448C185.753 124.533 188.697 127.477 190.844 131.28C192.991 135.083 194.064 139.56 194.064 144.712C194.064 145.203 194.033 145.755 193.972 146.368C193.972 146.981 193.941 147.564 193.88 148.116H152.94V140.48H187.808L183.3 142.872C183.361 140.051 182.779 137.567 181.552 135.42C180.325 133.273 178.639 131.587 176.492 130.36C174.407 129.133 171.984 128.52 169.224 128.52C166.403 128.52 163.919 129.133 161.772 130.36C159.687 131.587 158.031 133.304 156.804 135.512C155.639 137.659 155.056 140.204 155.056 143.148V144.988C155.056 147.932 155.731 150.539 157.08 152.808C158.429 155.077 160.331 156.825 162.784 158.052C165.237 159.279 168.059 159.892 171.248 159.892C174.008 159.892 176.492 159.463 178.7 158.604C180.908 157.745 182.871 156.396 184.588 154.556L190.752 161.64C188.544 164.216 185.753 166.209 182.38 167.62C179.068 168.969 175.265 169.644 170.972 169.644ZM232.986 119.32C236.912 119.32 240.408 120.087 243.474 121.62C246.602 123.153 249.056 125.515 250.834 128.704C252.613 131.832 253.502 135.88 253.502 140.848V169H242.002V142.32C242.002 137.965 240.96 134.715 238.874 132.568C236.85 130.421 233.998 129.348 230.318 129.348C227.62 129.348 225.228 129.9 223.142 131.004C221.057 132.108 219.432 133.764 218.266 135.972C217.162 138.119 216.61 140.848 216.61 144.16V169H205.11V119.872H216.058V133.12L214.126 129.072C215.844 125.944 218.328 123.552 221.578 121.896C224.89 120.179 228.693 119.32 232.986 119.32ZM286.583 169.644C281.186 169.644 277.015 168.264 274.071 165.504C271.127 162.683 269.655 158.543 269.655 153.084V109.016H281.155V152.808C281.155 155.139 281.738 156.948 282.903 158.236C284.13 159.524 285.816 160.168 287.963 160.168C290.539 160.168 292.686 159.493 294.403 158.144L297.623 166.332C296.274 167.436 294.618 168.264 292.655 168.816C290.692 169.368 288.668 169.644 286.583 169.644ZM261.559 129.44V120.24H294.311V129.44H261.559ZM327.546 169.644C322.517 169.644 318.039 168.571 314.114 166.424C310.189 164.216 307.091 161.211 304.822 157.408C302.553 153.605 301.418 149.281 301.418 144.436C301.418 139.529 302.553 135.205 304.822 131.464C307.091 127.661 310.189 124.687 314.114 122.54C318.039 120.393 322.517 119.32 327.546 119.32C332.637 119.32 337.145 120.393 341.07 122.54C345.057 124.687 348.154 127.631 350.362 131.372C352.631 135.113 353.766 139.468 353.766 144.436C353.766 149.281 352.631 153.605 350.362 157.408C348.154 161.211 345.057 164.216 341.07 166.424C337.145 168.571 332.637 169.644 327.546 169.644ZM327.546 159.8C330.367 159.8 332.882 159.187 335.09 157.96C337.298 156.733 339.015 154.955 340.242 152.624C341.53 150.293 342.174 147.564 342.174 144.436C342.174 141.247 341.53 138.517 340.242 136.248C339.015 133.917 337.298 132.139 335.09 130.912C332.882 129.685 330.398 129.072 327.638 129.072C324.817 129.072 322.302 129.685 320.094 130.912C317.947 132.139 316.23 133.917 314.942 136.248C313.654 138.517 313.01 141.247 313.01 144.436C313.01 147.564 313.654 150.293 314.942 152.624C316.23 154.955 317.947 156.733 320.094 157.96C322.302 159.187 324.786 159.8 327.546 159.8Z" fill="#EAE9E7"/>
<path d="M561.927 276.459H532.097V300H582.292V276.459H565.943H561.927Z" fill="#EAE9E7"/>
<path d="M602.657 300H612.123V276.459H602.657V300Z" fill="#EAE9E7"/>
<path d="M543.57 244.594H555.33V221.053H473.297V244.594H537.26H543.57Z" fill="#EAE9E7"/>
<path d="M585.448 221.053H573.401V244.594H619.294V221.053H591.758H585.448Z" fill="#EAE9E7"/>
<path d="M537.547 189.473H591.184V165.933H537.547V189.473Z" fill="#EAE9E7"/>
<path d="M608.968 189.473H626.751V165.933H608.968V189.473Z" fill="#EAE9E7"/>
<path d="M501.693 165.933H474.444V189.473H519.764V165.933H508.29H501.693Z" fill="#EAE9E7"/>
<path d="M644.821 189.473H654V165.933H644.821V189.473Z" fill="#EAE9E7"/>
<path d="M440.885 134.067H450.35V110.526H440.885V134.067Z" fill="#EAE9E7"/>
<path d="M547.872 134.067H567.377V110.526H547.872V134.067Z" fill="#EAE9E7"/>
<path d="M513.74 134.067H528.368V110.526H469.855V134.067H508.864H513.74Z" fill="#EAE9E7"/>
<path d="M625.891 110.526H586.882V134.067H635.356V110.526H630.767H625.891Z" fill="#EAE9E7"/>
<path d="M508.577 78.6603H570.245V55.1196H508.577V78.6603Z" fill="#EAE9E7"/>
<path d="M488.212 78.6603V55.1196H397V78.6603H471.576H488.212Z" fill="#EAE9E7"/>
<path d="M600.076 55.1196H590.611V78.6603H600.076V55.1196Z" fill="#EAE9E7"/>
<path d="M487.925 23.5407H509.437V0H454.079V23.5407H486.491H487.925Z" fill="#EAE9E7"/>
<path d="M541.562 0H532.097V23.5407H541.562V0Z" fill="#EAE9E7"/>
</svg>
