<svg viewBox="0 0 701 300" fill="none" xmlns="http://www.w3.org/2000/svg">
<path d="M164.623 276.647H134.731V300H185.03V276.647H168.647H164.623Z" fill="white"/>
<path d="M204.79 300H215.569V276.647H204.79V300Z" fill="white"/>
<path d="M146.238 244.311H158.084V220.958H75.4491V244.311H139.881H146.238Z" fill="white"/>
<path d="M188.308 220.958H176.048V244.311H222.755V220.958H194.731H188.308Z" fill="white"/>
<path d="M140.12 188.623H194.012V165.27H140.12V188.623Z" fill="white"/>
<path d="M211.976 188.623H229.94V165.27H211.976V188.623Z" fill="white"/>
<path d="M104.248 165.27H77.2455V188.623H122.156V165.27H110.786H104.248Z" fill="white"/>
<path d="M247.904 188.623H256.886V165.27H247.904V188.623Z" fill="white"/>
<path d="M43.1138 132.934H52.0958V109.581H43.1138V132.934Z" fill="white"/>
<path d="M150.898 132.934H170.659V109.581H150.898V132.934Z" fill="white"/>
<path d="M116.317 132.934H131.138V109.581H71.8563V132.934H111.377H116.317Z" fill="white"/>
<path d="M229.451 109.581H190.419V132.934H238.922V109.581H234.33H229.451Z" fill="white"/>
<path d="M111.377 77.2455H172.455V53.8922H111.377V77.2455Z" fill="white"/>
<path d="M91.6168 77.2455V53.8922H0V77.2455H74.9068H91.6168Z" fill="white"/>
<path d="M202.994 53.8922H194.012V77.2455H202.994V53.8922Z" fill="white"/>
<path d="M89.7366 23.3533H111.377V0H55.6886V23.3533H88.2939H89.7366Z" fill="white"/>
<path d="M143.713 0H134.731V23.3533H143.713V0Z" fill="white"/>
<path d="M362.288 108.789C362.572 110.82 362.855 112.562 363.421 114.013C363.987 115.464 364.837 116.916 365.969 118.077C367.102 118.947 368.517 119.818 370.499 120.399C372.481 120.979 374.746 121.269 377.577 121.269C379.842 121.269 381.824 121.269 383.806 120.689C385.788 120.399 387.487 119.818 388.903 118.947C390.318 118.367 391.451 117.206 392.017 116.045C392.866 114.884 393.433 113.433 393.433 111.981C393.433 109.95 392.866 108.498 391.451 107.337C390.318 106.176 388.903 105.015 386.921 104.435C384.939 103.854 382.674 103.274 380.409 102.693C377.861 102.113 375.312 101.823 372.764 101.242C370.216 100.662 367.668 100.081 365.403 99.2103C362.855 98.6298 360.59 97.4688 358.608 96.3078C356.909 94.8566 355.21 93.1151 354.078 91.0834C352.945 89.0516 352.379 86.7296 352.379 83.5369C352.379 77.4416 354.361 73.0879 358.891 69.6049C363.138 66.4121 369.367 64.6707 377.294 64.6707C381.824 64.6707 385.505 65.2512 388.62 66.1219C391.734 67.2829 394.282 68.7341 396.264 70.4756C398.529 72.2171 399.945 74.2489 400.794 76.8611C401.927 79.4734 402.493 82.0856 402.493 85.2784L392.583 85.8589C392.583 84.1174 392.3 82.6661 391.734 81.5051C391.168 80.0539 390.318 78.8929 389.186 78.0221C388.336 76.8611 386.638 75.9904 384.939 75.4099C383.24 74.8294 380.692 74.5391 378.144 74.5391C376.162 74.5391 374.463 74.8294 372.481 75.1196C370.782 75.4099 369.084 75.7001 367.668 76.2806C366.252 77.1514 365.12 77.7319 364.27 78.8929C363.421 80.0538 363.138 81.2149 363.138 82.9564C363.138 84.6979 363.704 86.1491 364.837 87.0198C365.969 88.1808 367.385 89.0516 369.367 89.6321C371.349 90.2126 373.614 90.7931 375.879 91.3736C378.427 91.6638 380.975 92.2443 383.523 92.8248C386.071 93.4053 388.62 93.9858 391.168 94.8566C393.433 95.4371 395.698 96.5981 397.68 98.0493C399.662 99.5006 401.077 101.242 402.21 103.274C403.342 105.596 404.192 108.208 404.192 111.401C404.192 117.496 401.927 122.43 397.397 125.913C393.15 129.396 386.638 131.138 378.144 131.138C369.65 131.138 363.421 129.396 359.174 125.913C354.644 122.14 352.379 116.916 352.096 110.24L362.288 108.789Z" fill="white"/>
<path d="M430.158 108.752C426.924 108.752 424.867 109.326 423.103 110.474C421.633 111.622 420.751 113.631 420.751 115.927C420.751 117.936 421.633 119.371 422.809 120.519C423.985 121.667 426.042 122.241 428.688 122.241C430.746 122.241 432.51 121.667 433.979 121.093C435.449 120.519 436.919 119.658 437.801 118.51C438.977 117.649 439.859 116.214 440.446 115.066C441.034 113.631 441.328 112.196 441.328 110.474V108.752H430.158ZM449.265 130.277C444.856 130.277 442.798 128.268 442.798 123.963V117.649C442.504 119.658 441.916 121.667 441.034 123.389C440.152 125.111 438.683 126.546 437.213 127.694C435.743 128.842 434.273 129.703 432.216 130.277C430.158 130.851 428.1 131.138 425.749 131.138C423.397 131.138 421.339 130.851 419.281 130.277C417.224 129.703 415.754 128.555 414.284 127.407C412.814 125.972 411.639 124.537 410.757 122.815C410.169 121.093 409.581 119.084 409.581 116.788C409.875 111.335 411.639 107.317 415.166 104.734C418.4 102.151 423.397 100.716 429.57 100.716H441.328V98.4198C441.328 96.4108 441.034 94.6888 439.859 93.5408C438.977 92.3928 436.919 91.8188 434.567 91.8188H416.048V82.6348H433.097C436.625 82.6348 439.565 82.9218 441.916 83.4958C444.268 84.0698 446.326 85.2177 447.795 86.6527C449.265 88.0878 450.441 89.8098 451.323 91.8188C451.911 94.1148 452.205 96.6978 452.205 99.8548V120.519H458.084V130.277H449.265Z" fill="white"/>
<path d="M476.225 66.4671V120.278H488.623V129.341H476.225C472.189 129.341 469.306 128.492 467.864 127.076C466.134 125.376 465.27 122.827 465.27 119.145V66.4671H476.225Z" fill="white"/>
<path d="M531.665 101.074C531.665 97.8939 530.515 95.0031 528.503 93.2687C526.491 91.2451 523.329 90.0888 519.305 90.0888C515.281 90.0888 512.12 91.2451 510.108 93.2687C507.808 95.2922 506.659 97.8939 506.371 101.074H531.665ZM494.012 105.988C494.012 102.23 494.299 98.7611 495.449 95.8704C496.599 92.6905 498.323 90.0888 500.623 87.7762C502.635 85.7526 505.509 84.0182 508.383 82.8619C511.545 81.7056 515.281 80.8383 519.305 80.8383C526.204 80.8383 531.665 82.5728 535.976 86.0417C540 89.5107 542.587 94.1359 543.737 99.9175C544.024 101.363 544.024 103.097 544.311 104.543C544.311 106.277 544.311 107.723 544.024 109.168H505.796C506.084 113.504 507.234 116.684 509.533 118.707C511.545 120.731 514.707 121.887 519.305 121.887C523.042 121.887 525.916 121.309 527.928 119.864C530.228 118.418 531.377 116.395 531.952 113.215H543.737C543.162 115.817 542.299 118.129 540.862 120.442C539.713 122.755 537.988 124.489 535.976 126.223C533.964 127.669 531.377 128.825 528.503 129.692C525.916 130.56 522.754 131.138 519.305 131.138C514.994 131.138 511.545 130.56 508.383 129.403C504.934 128.247 502.347 126.513 500.335 124.2C498.036 122.176 496.599 119.575 495.449 116.395C494.299 113.215 494.012 109.746 494.012 105.988Z" fill="white"/>
<path d="M553.293 81.6942H564.678V90.2536C566.138 87.4005 568.473 85.118 571.392 83.4061C574.311 81.6943 577.814 80.8383 581.609 80.8383C584.528 80.8383 587.156 81.1237 589.491 82.2649C591.826 83.1208 593.87 84.5474 595.329 86.2593C596.789 87.9711 597.957 89.9683 598.832 92.5361C599.708 94.8186 600 97.6717 600 100.525V129.341H588.907V101.381C588.907 93.3921 585.112 89.683 577.814 89.683C573.728 89.683 570.516 90.8242 568.181 93.1067C565.846 95.6745 564.386 98.813 564.386 103.093V129.341H553.293V81.6942Z" fill="white"/>
<path d="M627.074 91.3902L627.367 110.932C627.367 112.348 627.367 113.481 627.367 114.614C627.367 115.747 627.66 116.88 627.953 117.729C628.539 118.296 629.125 119.146 630.297 119.429C631.469 119.995 632.934 120.278 635.278 120.278H646.121V129.341H631.176C628.246 129.341 625.902 129.058 624.143 128.208C622.385 127.359 620.627 126.226 619.748 124.81C618.576 123.394 617.697 121.411 617.111 119.429C616.524 117.163 616.525 114.897 616.525 112.348L616.231 91.3902H605.389V82.3273H616.231V74.3972C616.231 72.6979 616.524 71.565 617.404 70.7153C617.99 69.5825 618.576 68.7328 619.748 68.1664C620.627 67.6 621.799 67.3168 623.264 67.0335C624.436 66.7503 625.608 66.4671 627.074 66.4671V82.3273H646.707V91.3902H627.074Z" fill="white"/>
<path d="M661.951 105.988C661.951 110.902 662.803 114.949 665.077 117.551C667.066 120.442 670.476 121.887 675.307 121.887C680.138 121.887 683.548 120.442 685.822 117.84C687.811 115.239 688.948 111.191 688.948 105.988C688.948 101.074 687.811 97.0267 685.822 94.425C683.548 91.5342 680.138 90.0888 675.307 90.0888C670.476 90.0888 667.066 91.5342 665.077 94.425C662.803 97.0267 661.951 100.785 661.951 105.988ZM650.299 105.988C650.299 102.23 650.868 98.7611 651.72 95.8704C652.857 92.6905 654.562 90.0888 656.836 87.7762C658.825 85.7526 661.667 84.0182 664.508 82.8619C667.634 81.7056 671.329 80.8383 675.307 80.8383C679.286 80.8383 682.98 81.7056 686.106 82.8619C689.232 84.0182 691.789 85.7526 693.779 87.7762C696.052 90.0888 697.757 92.6905 698.894 95.8704C700.031 98.7611 700.599 102.23 700.599 105.988C700.599 109.746 700.031 113.215 698.894 116.395C697.757 119.575 696.336 122.176 694.063 124.2C692.074 126.513 689.232 128.247 686.106 129.403C682.98 130.56 679.286 131.138 675.307 131.138C671.044 131.138 667.634 130.56 664.508 129.403C661.382 128.247 658.541 126.513 656.551 124.2C654.278 122.176 652.857 119.575 651.72 116.395C650.584 113.215 650.299 109.746 650.299 105.988Z" fill="white"/>
<path d="M377.494 211.285C382.962 211.285 387.28 209.578 390.158 205.595C393.036 201.897 394.475 196.491 394.475 189.379C394.475 182.266 393.036 177.145 389.87 173.162C386.992 169.464 382.962 167.757 377.494 167.757H365.117V211.285H377.494ZM353.892 220.958V158.084H377.782C382.099 158.084 386.128 158.653 389.582 160.075C393.036 161.498 395.914 163.489 398.505 166.334C400.807 168.895 402.822 172.309 403.973 176.007C405.412 179.99 405.988 184.542 405.988 189.379C405.988 194.215 405.412 198.767 403.973 202.75C402.822 206.733 400.807 209.863 398.505 212.708C395.914 215.553 393.036 217.544 389.582 218.967C386.128 220.389 382.099 220.958 377.782 220.958H353.892Z" fill="white"/>
<path d="M450.58 192.807C450.58 189.318 449.392 186.702 447.313 184.666C445.234 182.631 441.967 181.759 437.809 181.759C433.651 181.759 430.384 182.631 428.009 184.666C425.93 186.702 424.742 189.318 424.445 192.807H450.58ZM411.377 197.459C411.377 193.68 411.971 190.481 413.159 187.283C414.347 184.376 416.129 181.468 418.208 179.433C420.584 177.107 423.257 175.363 426.524 174.2C429.79 173.037 433.354 172.455 437.512 172.455C444.937 172.455 450.58 174.2 455.034 177.689C459.192 181.178 461.865 185.829 462.756 191.644C463.053 193.098 463.35 194.552 463.35 196.296C463.647 198.041 463.35 199.495 463.053 200.658H423.851C424.148 205.019 425.336 208.217 427.415 210.543C429.79 212.578 433.057 213.451 437.809 213.451C441.67 213.451 444.64 212.869 446.719 211.415C449.095 210.252 450.283 207.926 450.877 205.019H462.756C462.459 207.636 461.271 209.962 460.083 212.288C458.598 214.323 457.113 216.358 454.737 217.812C452.658 219.556 450.283 220.719 447.313 221.591C444.343 222.464 441.076 222.754 437.512 222.754C433.354 222.754 429.493 222.173 426.227 221.01C422.96 219.847 420.287 218.103 418.208 216.067C415.832 213.741 414.347 211.125 413.159 207.926C411.971 205.019 411.377 201.53 411.377 197.459Z" fill="white"/>
<path d="M477.344 174.252L492.068 217.863L507.382 174.252H519.162L502.67 220.958H481.761L465.27 174.252H477.344Z" fill="white"/>
</svg>
